<svg id="auto_checkin" data-name="auto_checkin" xmlns="http://www.w3.org/2000/svg" viewBox="0 0 9 10"><defs><style>.cls-1{fill:#2c71b4;}</style></defs><title>autocheckin</title><polygon class="cls-1" points="0 0 4 0 4 1 1 1 1 3 0 3 0 0"/><polygon class="cls-1" points="5 0 9 0 9 1 6 1 6 3 5 3 5 0"/><rect class="cls-1" x="2" y="2" width="2" height="1"/><rect class="cls-1" x="7" y="2" width="2" height="1"/><polygon class="cls-1" points="0 7 0 4 9 4 9 7 8 7 8 5 1 5 1 7 0 7"/><rect class="cls-1" x="2" y="6" width="5" height="1.01"/><polygon class="cls-1" points="0 10 9 10 9 9 7 9 7 8 6 8 6 9 5 9 5 8 4 8 4 9 3 9 3 8 2 8 2 9 0 9 0 10"/></svg>